:FULLY-SPECIFIED
:FORCE-ALL-JOINTS-BE-3DOF
:DEGREES
97
root 9.39746 16.2815 -23.6399 3.31917 -2.91472 3.7529
lfemur -5.00463 1.52145 -29.0278
ltibia 21.6266 0 0
lfoot -18.506 6.9496 0
ltoes 0.165741 0 0
rfemur -33.2096 3.77048 16.2798
rtibia 48.5544 0 0
rfoot -22.0587 -12.6092 0
rtoes -20.0467 0 0
lowerback -6.76581 -1.96915 -4.93167
upperback -0.393097 -2.34468 2.62251
thorax 3.69638 -1.27009 5.27656
lowerneck -20.9206 -4.94967 -13.4694
upperneck 19.9662 -5.37805 11.3833
head 10.5536 -2.18588 5.54167
lclavicle -1.34013e-14 7.77419e-15 0
lhumerus -21.1027 -19.9009 88.2684
lradius 34.3388 0 0
lwrist 8.26785 0 0
lhand -14.0579 -25.0049 0
lfingers 7.12502 0 0
lthumb 12.0755 4.65488 0
rclavicle -1.34013e-14 7.77419e-15 0
rhumerus -43.6297 12.2011 -86.2896
rradius 38.4248 0 0
rwrist -21.5441 0 0
rhand -29.1657 -21.5635 0
rfingers 7.12502 0 0
rthumb -2.51177 -51.5284 0
98
root 9.39847 16.2734 -23.5146 3.3502 -2.5735 3.84595
lfemur -4.10851 1.42066 -29.0818
ltibia 20.806 0 0
lfoot -18.5763 6.72773 0
ltoes 0.0650787 0 0
rfemur -33.7993 4.03284 15.937
rtibia 47.8667 0 0
rfoot -22.4643 -12.6923 0
rtoes -20.2567 0 0
lowerback -6.83165 -2.04654 -5.01193
upperback -0.395214 -2.43837 2.60481
thorax 3.74517 -1.31847 5.29129
lowerneck -20.8623 -4.96773 -13.4781
upperneck 20.0344 -5.4051 11.3483
head 10.57 -2.20489 5.52796
lclavicle -1.50811e-14 7.65731e-15 0
lhumerus -21.1195 -20.2969 88.5193
lradius 34.7032 0 0
lwrist 8.50996 0 0
lhand -14.1711 -25.0789 0
lfingers 7.12502 0 0
lthumb 11.9668 4.59439 0
rclavicle -1.50811e-14 7.65731e-15 0
rhumerus -43.7357 12.0345 -86.1471
rradius 38.3095 0 0
rwrist -21.4753 0 0
rhand -29.1769 -21.5499 0
rfingers 7.12502 0 0
rthumb -2.5226 -51.5146 0
99
root 9.39899 16.2642 -23.3888 3.38851 -2.22362 3.94172
lfemur -3.18028 1.3243 -29.1325
ltibia 19.9224 0 0
lfoot -18.6414 6.48389 0
ltoes -0.0505583 0 0
rfemur -34.3701 4.31342 15.5532
rtibia 47.1245 0 0
rfoot -22.8376 -12.7807 0
rtoes -20.4492 0 0
lowerback -6.90103 -2.12536 -5.09526
upperback -0.401612 -2.53337 2.58468
thorax 3.79206 -1.3674 5.30462
lowerneck -20.8025 -4.98499 -13.4827
upperneck 20.1049 -5.43263 11.3126
head 10.5869 -2.22393 5.5133
lclavicle -1.68672e-14 7.51393e-15 0
lhumerus -21.1809 -20.7024 88.7969
lradius 35.0761 0 0
lwrist 8.75197 0 0
lhand -14.2573 -25.143 0
lfingers 7.12502 0 0
lthumb 11.8842 4.54119 0
rclavicle -1.68672e-14 7.51393e-15 0
rhumerus -43.8504 11.8554 -86.0034
rradius 38.1831 0 0
rwrist -21.3946 0 0
rhand -29.1898 -21.5437 0
rfingers 7.12502 0 0
rthumb -2.535 -51.5083 0
100
root 9.39903 16.2542 -23.2625 3.43363 -1.86605 4.0396
lfemur -2.2242 1.23258 -29.1794
ltibia 18.9834 0 0
lfoot -18.7002 6.22027 0
ltoes -0.180475 0 0
rfemur -34.9219 4.61003 15.1327
rtibia 46.333 0 0
rfoot -23.1793 -12.8733 0
rtoes -20.6246 0 0
lowerback -6.97346 -2.20534 -5.18107
upperback -0.412018 -2.62942 2.56238
thorax 3.83698 -1.41675 5.31655
lowerneck -20.7416 -5.00154 -13.4838
upperneck 20.1774 -5.46062 11.2764
head 10.6041 -2.24299 5.49785
lclavicle -1.8744e-14 7.34549e-15 0
lhumerus -21.2843 -21.1146 89.0988
lradius 35.4553 0 0
lwrist 8.99243 0 0
lhand -14.3177 -25.1975 0
lfingers 7.12502 0 0
lthumb 11.8262 4.49509 0
rclavicle -1.8744e-14 7.34549e-15 0
rhumerus -43.9729 11.6649 -85.8589
rradius 38.0463 0 0
rwrist -21.3029 0 0
rhand -29.2041 -21.5447 0
rfingers 7.12502 0 0
rthumb -2.54885 -51.5091 0
101
root 9.39856 16.2434 -23.1358 3.48513 -1.50177 4.13898
lfemur -1.24455 1.14569 -29.2219
ltibia 17.9968 0 0
lfoot -18.7517 5.93907 0
ltoes -0.323976 0 0
rfemur -35.4549 4.92053 14.6796
rtibia 45.4976 0 0
rfoot -23.4904 -12.969 0
rtoes -20.7833 0 0
lowerback -7.04844 -2.28621 -5.26876
upperback -0.426159 -2.72624 2.53819
thorax 3.87985 -1.46639 5.32709
lowerneck -20.6797 -5.01746 -13.4814
upperneck 20.2512 -5.48908 11.2401
head 10.6216 -2.26207 5.48173
lclavicle -2.06962e-14 7.15342e-15 0
lhumerus -21.4272 -21.5311 89.4223
lradius 35.8385 0 0
lwrist 9.2299 0 0
lhand -14.3538 -25.2427 0
lfingers 7.12502 0 0
lthumb 11.7917 4.45593 0
rclavicle -2.06962e-14 7.15342e-15 0
rhumerus -44.1025 11.464 -85.7137
rradius 37.9 0 0
rwrist -21.201 0 0
rhand -29.2198 -21.5525 0
rfingers 7.12502 0 0
rthumb -2.56402 -51.5167 0
102
root 9.39757 16.2319 -23.0085 3.54254 -1.13177 4.23924
lfemur -0.245613 1.06383 -29.2593
ltibia 16.9702 0 0
lfoot -18.795 5.64245 0
ltoes -0.480365 0 0
rfemur -35.9688 5.24273 14.1983
rtibia 44.6238 0 0
rfoot -23.7717 -13.0666 0
rtoes -20.9258 0 0
lowerback -7.12548 -2.36772 -5.35771
upperback -0.443761 -2.82356 2.51236
thorax 3.92061 -1.51616 5.33625
lowerneck -20.617 -5.03284 -13.476
upperneck 20.3259 -5.518 11.2039
head 10.6392 -2.28114 5.46508
lclavicle -2.27085e-14 6.93918e-15 0
lhumerus -21.6068 -21.9493 89.7648
lradius 36.2234 0 0
lwrist 9.46294 0 0
lhand -14.3668 -25.2788 0
lfingers 7.12502 0 0
lthumb 11.7794 4.42353 0
rclavicle -2.27085e-14 6.93918e-15 0
rhumerus -44.2383 11.2538 -85.5681
rradius 37.7449 0 0
rwrist -21.0899 0 0
rhand -29.2368 -21.5668 0
rfingers 7.12502 0 0
rthumb -2.58038 -51.5308 0
103
root 9.39605 16.2199 -22.8807 3.60543 -0.757033 4.33977
lfemur 0.768352 0.98722 -29.2911
ltibia 15.9113 0 0
lfoot -18.8291 5.33262 0
ltoes -0.648947 0 0
rfemur -36.4636 5.57449 13.6929
rtibia 43.7168 0 0
rfoot -24.0241 -13.1651 0
rtoes -21.0525 0 0
lowerback -7.20409 -2.44959 -5.44732
upperback -0.46455 -2.92111 2.48517
thorax 3.95919 -1.56595 5.34404
lowerneck -20.5537 -5.04775 -13.4679
upperneck 20.4009 -5.54738 11.1681
head 10.6568 -2.30019 5.44805
lclavicle -2.47653e-14 6.70419e-15 0
lhumerus -21.8207 -22.3665 90.1237
lradius 36.6076 0 0
lwrist 9.69012 0 0
lhand -14.358 -25.3063 0
lfingers 7.12502 0 0
lthumb 11.7881 4.39772 0
rclavicle -2.47653e-14 6.70419e-15 0
rhumerus -44.3796 11.0356 -85.4223
rradius 37.5819 0 0
rwrist -20.9705 0 0
rhand -29.2548 -21.5874 0
rfingers 7.12502 0 0
rthumb -2.59781 -51.5511 0
